PathFileType	4	(X/Y/Z)	Patient4_TMGait_0pt4_01_right_24.trc.trc
DataRate	CameraRate	NumFrames	NumMarkers	Units	OrigDataRate	OrigDataStartFrame	OrigNumFrames
77.777777777778	77.777777777778	6	33	mm	77.777777777778	36	       141
Frame#	Time	Sacral			L.Shoulder			Chest			R.Shoulder			Neck			R.ASIS			L.ASIS			R.Thigh.Superior			R.Thigh.Lateral			R.Thigh.Inferior			R.Patella			L.Thigh.Superior			L.Thigh.Lateral			L.Thigh.Inferior			L.Patella			L.Shank.Superior			L.Shank.Lateral			L.Shank.Inferior			R.Shank.Superior			R.Shank.Lateral			R.Shank.Inferior			R.Heel			R.Midfoot.Superior			R.Midfoot.Lateral			R.Toe			L.Heel			L.Midfoot.Lateral			L.Midfoot.Superior			L.Toe			L.Elbow			L.Wrist			R.Elbow			R.Wrist			
		X1	Y1	Z1	X2	Y2	Z2	X3	Y3	Z3	X4	Y4	Z4	X5	Y5	Z5	X6	Y6	Z6	X7	Y7	Z7	X8	Y8	Z8	X9	Y9	Z9	X10	Y10	Z10	X11	Y11	Z11	X12	Y12	Z12	X13	Y13	Z13	X14	Y14	Z14	X15	Y15	Z15	X16	Y16	Z16	X17	Y17	Z17	X18	Y18	Z18	X19	Y19	Z19	X20	Y20	Z20	X21	Y21	Z21	X22	Y22	Z22	X23	Y23	Z23	X24	Y24	Z24	X25	Y25	Z25	X26	Y26	Z26	X27	Y27	Z27	X28	Y28	Z28	X29	Y29	Z29	X30	Y30	Z30	X31	Y31	Z31	X32	Y32	Z32	X33	Y33	Z33	

36	31.330000000000	850.098453900243	987.227096095970	464.848449947337	1015.637874960727	1423.553298655881	284.172434025384	1106.281398344661	1368.124362338659	456.425346634484	999.596899928541	1440.663991082723	618.055845835544	986.618344479266	1488.582009280020	437.119642243258	1076.755304150745	940.189614305201	597.862360446060	1078.441235863941	962.560413788761	322.983860788027	1147.760654860652	749.595912328172	565.217784259889	1081.954404806515	630.626599441222	626.503986919191	1168.236417717765	588.146008560118	548.314374670298	1181.724797062880	497.861830265620	556.260411955939	1105.507523501047	735.325472516515	345.479919543441	1007.319584892236	626.107623385736	278.151582544596	1083.913694583857	537.931033402098	338.216996123153	1074.009498888900	457.369142338081	337.096824030557	1016.782292368098	396.893195763227	329.046840178711	888.473025186112	326.696637251448	278.116761798800	898.874839717228	198.674048844119	337.756131071830	1152.933510200162	406.497518903313	565.355402513401	1083.368045759236	304.583651535299	633.006938516771	1123.807503230956	207.686631102259	571.776542906413	990.731413122622	43.024530574574	551.854949425900	1162.213483283640	97.720755941223	581.062861582967	1076.198383911800	37.589639855610	624.049838382294	1283.564628894055	47.169010467125	606.544009869323	729.899503760497	83.098747774322	375.973342184987	798.287803604228	60.147513120376	295.550925445290	892.994856164102	103.685311948210	317.870029241519	1004.305528401044	35.993466697003	288.345990479456	1054.282305133807	1085.338539605467	144.409035586887	1270.782002770444	935.542177172003	149.171005262889	929.370638876674	1103.949166678827	743.445795002428	1017.367184819822	857.913921531455	761.171884192975	
37	31.342857142857	850.381964565018	987.656326714522	468.966409709379	1014.746831069776	1424.176365274035	287.422079494564	1106.851553531028	1368.582893242157	458.856913256446	1001.652869497557	1440.983168405138	621.403852155322	987.023700255539	1489.044526783767	440.695709103346	1077.930391369005	940.679212366109	600.343387756914	1077.405452484926	962.789760114503	325.647923444970	1147.173994173417	748.963683045727	568.364152403566	1080.072175526944	630.618972940220	629.110280292444	1166.024239706992	587.564526010876	550.903785155110	1178.623200560634	497.302754938905	558.400951426107	1110.213504048814	737.275895113165	347.990176404117	1016.364568342684	625.761399474656	280.014675896505	1096.233689055408	539.158255221854	339.575917030963	1087.478829457198	457.151814113897	337.368762813098	1027.658835339639	397.006049318684	329.646113943010	896.593096962937	331.950462329491	278.971892581821	902.780814095078	203.421399486087	337.682823289832	1149.477761721516	405.994444866204	567.169876773869	1079.628314956797	304.076558742734	634.500063794595	1119.479114865557	207.309250553450	572.662461691249	985.603541315017	42.999149214712	552.063980952172	1157.207405894405	97.616810117446	581.412210803100	1071.077981926586	37.520723479572	624.289630416916	1278.542807470732	46.847271841235	606.741159198468	729.239590706015	95.955090969376	375.734668711342	796.147766145456	68.872837525627	295.464366393499	892.989846465934	107.401163440614	317.297692503778	999.471400497348	35.110906845401	288.368352529585	1051.199148848708	1085.175877185239	148.644307340399	1264.422248787699	930.386700464888	150.918056169944	936.563411609566	1103.131155155043	747.521332504605	1031.029217839898	859.393553909193	762.517135644431	
38	31.355714285714	850.456609956851	988.109285612234	473.028765580924	1013.669394961458	1424.716239501558	290.558889898635	1107.374290259387	1368.939357037948	461.093914049409	1003.852043918831	1441.261376004685	624.637109813591	987.410944022497	1489.455424901493	444.173017056183	1078.916791637024	941.106271250010	602.677545297298	1076.068862310347	962.868389654833	328.178164047244	1146.276482215386	748.301481118820	571.471635626724	1077.879839964482	630.618353062171	631.737030759831	1163.486117997647	586.982513574357	553.519380831008	1175.193703285642	496.756430244391	560.639454664814	1114.932751468023	739.526681440575	350.429327365751	1025.859862464923	625.763127435719	281.574773119653	1108.883669160669	540.954108370785	340.802622967176	1101.391963956208	457.606716783270	337.642565537245	1039.243155051523	397.624149860948	330.197437911954	905.665269836174	337.705162502909	279.729379921070	907.555439291742	208.897143665900	337.725194329309	1145.728554662813	405.521935805413	569.076946962594	1075.614761824726	303.550077485827	636.040394000318	1115.005732841509	206.951982861412	573.615147283553	980.423480602409	42.945271174282	552.280713352168	1152.158284640941	97.497917404875	581.780156846081	1065.913974281660	37.435841602275	624.536613174322	1273.473973318489	46.529279469704	606.928570350241	729.644602948263	109.989624155338	375.721270716865	794.870349381153	78.819562938686	295.530174278488	893.789746441557	111.947485696179	316.951399306358	995.094071391843	34.348378572770	288.460738631474	1047.761889734200	1084.890929649894	152.832194596779	1257.322553071603	924.888332087985	152.471567551262	944.002930888593	1102.448436287770	751.690842477570	1045.027465381040	861.276106836763	763.926824456279	
39	31.368571428571	850.322723743255	988.571182874060	476.972247287288	1012.441431834547	1425.173443368520	293.559435662127	1107.850267999436	1369.173900077452	463.120161636964	1006.172073534634	1441.476897322938	627.728131504579	987.794845439119	1489.814778589364	447.521105090210	1079.706884788201	941.478262839920	604.849693241556	1074.490287461652	962.798132873604	330.532960635623	1145.115217989309	747.656876459302	574.433690108490	1075.492056569462	630.641741032620	634.330996187134	1160.705084666515	586.422658403956	556.082778088781	1171.521568824674	496.236522188074	562.917253510803	1119.542673961980	742.092065976204	352.771968974877	1035.551404496816	626.189545318700	282.837143889804	1121.553559689361	543.368880069956	341.878221488901	1115.465638192337	458.797428262258	337.900910147566	1051.286026775403	398.796589269045	330.695990951961	915.458900723833	343.848198578273	280.437365447352	913.130384516471	214.956327897544	337.925491408474	1141.771679843533	405.088570291639	571.021222845986	1071.406084565032	303.030179744410	637.594525194998	1110.434485707211	206.623558795763	574.602907744847	975.211441015577	42.878461564884	552.505077913316	1147.080325817187	97.374883959492	582.158791244541	1060.723844731114	37.346231412337	624.791508970027	1268.371906089495	46.225362741595	607.109626855034	731.209761163335	124.674137364553	376.001963341807	794.627579902293	89.650582506367	295.804634930182	895.469999966123	117.245226828170	316.885522341123	991.489398725172	33.803170135892	288.622476640462	1043.946355496446	1084.471269357942	156.960720134982	1249.467662833997	919.108700114566	153.830408252878	951.693044088866	1101.868537061220	755.905850456254	1059.319668655107	863.526912534318	765.367727260018	
40	31.381428571429	849.990573343379	989.037507309388	480.746334694887	1011.102583753588	1425.563758274135	296.402929692336	1108.279097255509	1369.287513519122	464.925276446817	1008.581747392291	1441.624575351122	630.651771759698	988.189724788042	1490.136662718218	450.710647283737	1080.301006891492	941.813253295605	606.851662033347	1072.738603101538	962.612626804745	332.682264024307	1143.733108243926	747.066664663673	577.171987003157	1072.989719073402	630.698931849617	636.838245219701	1157.745064363290	585.899765220779	558.526532123328	1167.669092720857	495.755186941335	565.169931624038	1123.924782816219	744.981937895489	354.985346082080	1045.153250670200	627.103087363082	283.822326523156	1133.935727779191	546.429820519513	342.768298572310	1129.411998322388	460.760018241095	338.095542359419	1063.525876896790	400.553292447896	331.115106130869	925.719416006043	350.225867272894	281.132097310569	919.448357063646	221.391893084092	338.296718396548	1137.674233329537	404.702582124372	572.944312452329	1067.060814470882	302.541178581543	639.121107250462	1105.801272606665	206.332838404051	575.592620770504	969.986880455997	42.812189872589	552.733819135243	1141.986167839800	97.258259294453	582.539705976024	1055.522763712723	37.261208061173	625.051927364510	1263.248172140135	45.944957743382	607.286819544515	734.021002304765	139.353348556437	376.616304816755	795.604664911004	100.884391268953	296.322470399570	898.136556593744	123.117814765790	317.116131358445	989.042527738574	33.583607681267	288.845169883004	1039.729893917720	1083.924411320969	161.016561195081	1240.846318288289	913.122910110147	155.006987913937	959.639850556282	1101.368337220218	760.105929782201	1073.861458266029	866.114112439776	766.797844185749	
41	31.394285714286	849.481570335956	989.514902431219	484.317243553262	1009.693582831708	1425.916551352064	299.073570052050	1108.659725835101	1369.302241986495	466.506683737651	1011.043889308167	1441.716493363430	633.387480593334	988.607120223688	1490.446508157929	453.716731791280	1080.707356906890	942.135974322132	608.681738547071	1070.881628556523	962.371211560350	334.612697697570	1142.164846923848	746.553524157206	579.639920486785	1070.413581126304	630.793863600701	639.207926211868	1154.645291710213	585.420934295366	560.798514436839	1163.669746842426	495.322003530640	567.332303937755	1127.975871279486	748.195816807010	357.033885753341	1054.377762448916	628.539724070321	284.564166876630	1145.751419873001	550.133239710438	343.429582583929	1142.957690753275	463.498115649152	338.161405545286	1075.713772696891	402.896282783088	331.414777712328	936.201008184424	356.641684031437	281.830350314614	926.479414750522	227.940325975740	338.819235413805	1133.477709482490	404.370919504353	574.788769819412	1062.614479438041	302.103561553407	640.576345378444	1101.127078494693	206.087650453213	576.552057867709	964.764954978091	42.756004710271	552.962317659641	1136.884668555851	97.156883628913	582.914209995772	1050.321539238685	37.187380634568	625.313132267243	1258.110623355983	45.696140609278	607.460712112972	738.159426499792	153.291647591779	377.562462495893	797.996059800687	111.928459487518	297.085836766130	901.930433743387	129.293937635546	317.616432189566	988.189138682951	33.788732491772	289.109906514501	1035.095456261729	1083.280041025301	164.984523241265	1231.454560154818	907.018737329055	156.026788253757	967.849425185166	1100.938984920420	764.223302744475	1088.605935828303	869.012918733071	768.168419290028	
